# xmcd
#
# Track frame offsets:
#	183
#	37510
#	50823
#	67930
#	85770
#	108550
#	122325
#	150875
#	176208
#	197135
#
# Disc length: 2891 seconds
# Revision: 8
# Processed by: cddbd v1.5.2PL0 Copyright (c) Steve Scherf et al.
# Submitted via: dBpowerAMP V12.0
#
DISCID=750b490a
DTITLE=Various Artist - Soul and Blues
DYEAR=1991
DGENRE=Blues
TTITLE0=Honky Tonk - Jmmy Smith
TTITLE1=Farther on up the road - Jmmy Smith
TTITLE2=Corinna Corinna - Albert King
TTITLE3=She caught The Katy and left me a mule to ride - Albert King
TTITLE4=Eight men and four women - Little Milton
TTITLE5=Baby, baby, baby - Jmmy Witherspoon
TTITLE6=You send me - Hank Crawford (with Leon Thomas)
TTITLE7=Nobody Knows You (When You're Down And Out) - Ruth Brown
TTITLE8=Drown yourself - Staple Singers
TTITLE9=For the love of a woman - Albert King
EXTD=
EXTT0=
EXTT1=
EXTT2=
EXTT3=
EXTT4=
EXTT5=
EXTT6=
EXTT7=
EXTT8=
EXTT9=
PLAYORDER=
